<?xml version="1.0" encoding="UTF-8" standalone="no"?>
<!DOCTYPE svg PUBLIC "-//W3C//DTD SVG 1.1//EN"
"http://www.w3.org/Graphics/SVG/1.1/DTD/svg11.dtd">
<svg viewBox="0 0 909 1286" version="1.1" xmlns="http://www.w3.org/2000/svg" xmlns:xlink="http://www.w3.org/1999/xlink">
<defs>
<clipPath id="c0_1"><path d="M0,194.9V108.3H909.5v86.6Z"/></clipPath>
<style type="text/css"><![CDATA[
.g0_1{
}
.g1_1{
fill: #FFFFFF;
}
.g2_1{
fill: none;
stroke: #000000;
stroke-width: 1.145;
stroke-linecap: round;
stroke-linejoin: miter;
}
]]></style>
</defs>
<path fill-rule="evenodd" d="M649.5,303.1h.7v-.8h-.7v.8Z" class="g0_1"/>
<path fill-rule="evenodd" d="M649.5,303.1h.7v-.8h-.7v.8Z" class="g0_1"/>
<path fill-rule="evenodd" d="M650.2,303.1H801.1v-.8H650.2v.8Z" class="g0_1"/>
<path fill-rule="evenodd" d="M801.1,303.1h.8v-.8h-.8v.8Z" class="g0_1"/>
<path fill-rule="evenodd" d="M801.1,303.1h.8v-.8h-.8v.8Z" class="g0_1"/>
<path fill-rule="evenodd" d="M649.5,519.8h.7V303.1h-.7V519.8Z" class="g0_1"/>
<path fill-rule="evenodd" d="M649.5,520.6h.7v-.8h-.7v.8Z" class="g0_1"/>
<path fill-rule="evenodd" d="M649.5,520.6h.7v-.8h-.7v.8Z" class="g0_1"/>
<path fill-rule="evenodd" d="M650.2,520.6H801.1v-.8H650.2v.8Z" class="g0_1"/>
<path fill-rule="evenodd" d="M801.1,519.8h.8V303.1h-.8V519.8Z" class="g0_1"/>
<path fill-rule="evenodd" d="M801.1,520.6h.8v-.8h-.8v.8Z" class="g0_1"/>
<path fill-rule="evenodd" d="M801.1,520.6h.8v-.8h-.8v.8Z" class="g0_1"/>
<path fill-rule="evenodd" d="M164.3,543.7h.7v-.8h-.7v.8Z" class="g0_1"/>
<path fill-rule="evenodd" d="M164.3,543.7h.7v-.8h-.7v.8Z" class="g0_1"/>
<path fill-rule="evenodd" d="M165,543.7H801.1v-.8H165v.8Z" class="g0_1"/>
<path fill-rule="evenodd" d="M801.1,543.7h.8v-.8h-.8v.8Z" class="g0_1"/>
<path fill-rule="evenodd" d="M801.1,543.7h.8v-.8h-.8v.8Z" class="g0_1"/>
<path fill-rule="evenodd" d="M164.3,775.1h.7V543.7h-.7V775.1Z" class="g0_1"/>
<path fill-rule="evenodd" d="M164.3,775.8h.7v-.7h-.7v.7Z" class="g0_1"/>
<path fill-rule="evenodd" d="M164.3,775.8h.7v-.7h-.7v.7Z" class="g0_1"/>
<path fill-rule="evenodd" d="M165,775.8H801.1v-.7H165v.7Z" class="g0_1"/>
<path fill-rule="evenodd" d="M801.1,775.1h.8V543.7h-.8V775.1Z" class="g0_1"/>
<path fill-rule="evenodd" d="M801.1,775.8h.8v-.7h-.8v.7Z" class="g0_1"/>
<path fill-rule="evenodd" d="M801.1,775.8h.8v-.7h-.8v.7Z" class="g0_1"/>
<path fill-rule="evenodd" d="M164.3,821.3h.7v-.8h-.7v.8Z" class="g0_1"/>
<path fill-rule="evenodd" d="M164.3,821.3h.7v-.8h-.7v.8Z" class="g0_1"/>
<path fill-rule="evenodd" d="M165,821.3H801.1v-.8H165v.8Z" class="g0_1"/>
<path fill-rule="evenodd" d="M801.1,821.3h.8v-.8h-.8v.8Z" class="g0_1"/>
<path fill-rule="evenodd" d="M801.1,821.3h.8v-.8h-.8v.8Z" class="g0_1"/>
<path fill-rule="evenodd" d="M164.3,866h.7V821.3h-.7V866Z" class="g0_1"/>
<path fill-rule="evenodd" d="M801.1,866h.8V821.3h-.8V866Z" class="g0_1"/>
<path fill-rule="evenodd" d="M164.3,866.7h.7V866h-.7v.7Z" class="g0_1"/>
<path fill-rule="evenodd" d="M165,866.7H482.6V866H165v.7Z" class="g0_1"/>
<path fill-rule="evenodd" d="M482.6,866.7h.7V866h-.7v.7Z" class="g0_1"/>
<path fill-rule="evenodd" d="M483.3,866.7H801.1V866H483.3v.7Z" class="g0_1"/>
<path fill-rule="evenodd" d="M801.1,866.7h.8V866h-.8v.7Z" class="g0_1"/>
<path fill-rule="evenodd" d="M164.3,911.6h.7V866.7h-.7v44.9Z" class="g0_1"/>
<path fill-rule="evenodd" d="M482.6,911.6h.7V866.7h-.7v44.9Z" class="g0_1"/>
<path fill-rule="evenodd" d="M801.1,911.6h.8V866.7h-.8v44.9Z" class="g0_1"/>
<path fill-rule="evenodd" d="M164.3,912.4h.7v-.8h-.7v.8Z" class="g0_1"/>
<path fill-rule="evenodd" d="M165,912.4H482.6v-.8H165v.8Z" class="g0_1"/>
<path fill-rule="evenodd" d="M482.6,912.4h.7v-.8h-.7v.8Z" class="g0_1"/>
<path fill-rule="evenodd" d="M483.3,912.4H801.1v-.8H483.3v.8Z" class="g0_1"/>
<path fill-rule="evenodd" d="M801.1,912.4h.8v-.8h-.8v.8Z" class="g0_1"/>
<path fill-rule="evenodd" d="M164.3,1031.8h.7V912.4h-.7v119.4Z" class="g0_1"/>
<path fill-rule="evenodd" d="M801.1,1031.8h.8V912.4h-.8v119.4Z" class="g0_1"/>
<path fill-rule="evenodd" d="M164.3,1032.5h.7v-.7h-.7v.7Z" class="g0_1"/>
<path fill-rule="evenodd" d="M165,1032.5H482.6v-.7H165v.7Z" class="g0_1"/>
<path fill-rule="evenodd" d="M482.6,1032.5h.7v-.7h-.7v.7Z" class="g0_1"/>
<path fill-rule="evenodd" d="M483.3,1032.5H801.1v-.7H483.3v.7Z" class="g0_1"/>
<path fill-rule="evenodd" d="M801.1,1032.5h.8v-.7h-.8v.7Z" class="g0_1"/>
<path fill-rule="evenodd" d="M164.3,1077.2h.7v-44.7h-.7v44.7Z" class="g0_1"/>
<path fill-rule="evenodd" d="M482.6,1077.2h.7v-44.7h-.7v44.7Z" class="g0_1"/>
<path fill-rule="evenodd" d="M801.1,1077.2h.8v-44.7h-.8v44.7Z" class="g0_1"/>
<path fill-rule="evenodd" d="M164.3,1078h.7v-.8h-.7v.8Z" class="g0_1"/>
<path fill-rule="evenodd" d="M165,1078H482.6v-.8H165v.8Z" class="g0_1"/>
<path fill-rule="evenodd" d="M482.6,1078h.7v-.8h-.7v.8Z" class="g0_1"/>
<path fill-rule="evenodd" d="M483.3,1078H801.1v-.8H483.3v.8Z" class="g0_1"/>
<path fill-rule="evenodd" d="M801.1,1078h.8v-.8h-.8v.8Z" class="g0_1"/>
<path fill-rule="evenodd" d="M164.3,1152.6h.7V1078h-.7v74.6Z" class="g0_1"/>
<path fill-rule="evenodd" d="M164.3,1153.3h.7v-.7h-.7v.7Z" class="g0_1"/>
<path fill-rule="evenodd" d="M164.3,1153.3h.7v-.7h-.7v.7Z" class="g0_1"/>
<path fill-rule="evenodd" d="M165,1153.3H482.6v-.7H165v.7Z" class="g0_1"/>
<path fill-rule="evenodd" d="M482.6,1152.6h.7V1078h-.7v74.6Z" class="g0_1"/>
<path fill-rule="evenodd" d="M482.6,1153.3h.7v-.7h-.7v.7Z" class="g0_1"/>
<path fill-rule="evenodd" d="M483.3,1153.3H801.1v-.7H483.3v.7Z" class="g0_1"/>
<path fill-rule="evenodd" d="M801.1,1152.6h.8V1078h-.8v74.6Z" class="g0_1"/>
<path fill-rule="evenodd" d="M801.1,1153.3h.8v-.7h-.8v.7Z" class="g0_1"/>
<path fill-rule="evenodd" d="M801.1,1153.3h.8v-.7h-.8v.7Z" class="g0_1"/>
<image clip-path="url(#c0_1)" preserveAspectRatio="none" x="314" y="108" width="340" height="87" xlink:href="img/1.jpg"/>
<path fill-rule="evenodd" d="M549.6,107H808.1V25.2H549.6V107Z" class="g1_1"/>
<path d="M549.6,107H808.1V25.2H549.6V107Z" class="g2_1"/>
</svg>