<?xml version="1.0" encoding="UTF-8" standalone="no"?>
<!DOCTYPE svg PUBLIC "-//W3C//DTD SVG 1.1//EN"
"http://www.w3.org/Graphics/SVG/1.1/DTD/svg11.dtd">
<svg viewBox="0 0 909 1286" version="1.1" xmlns="http://www.w3.org/2000/svg" xmlns:xlink="http://www.w3.org/1999/xlink">
<defs>
<style type="text/css"><![CDATA[
.g0{
fill: #D9D9D9;
}
.g1{
}
]]></style>
</defs>
<path fill-rule="evenodd" d="M175.8,166.1H227V154.6H175.8v11.5Z" class="g0"/>
<path fill-rule="evenodd" d="M175.8,188.7h7.9V166.1h-7.9v22.6Z" class="g0"/>
<path fill-rule="evenodd" d="M219.1,188.7H227V166.1h-7.9v22.6Z" class="g0"/>
<path fill-rule="evenodd" d="M175.8,200.2H227V188.7H175.8v11.5Z" class="g0"/>
<path fill-rule="evenodd" d="M183.7,188.7h35.4V166.1H183.7v22.6Z" class="g0"/>
<path fill-rule="evenodd" d="M227.7,166.1H414.8V154.6H227.7v11.5Z" class="g0"/>
<path fill-rule="evenodd" d="M227.7,188.7h7.9V166.1h-7.9v22.6Z" class="g0"/>
<path fill-rule="evenodd" d="M406.9,188.7h7.9V166.1h-7.9v22.6Z" class="g0"/>
<path fill-rule="evenodd" d="M227.7,200.2H414.8V188.7H227.7v11.5Z" class="g0"/>
<path fill-rule="evenodd" d="M235.6,188.7H406.9V166.1H235.6v22.6Z" class="g0"/>
<path fill-rule="evenodd" d="M415.5,166.1H602.4V154.6H415.5v11.5Z" class="g0"/>
<path fill-rule="evenodd" d="M415.5,188.7h7.9V166.1h-7.9v22.6Z" class="g0"/>
<path fill-rule="evenodd" d="M594.5,188.7h7.9V166.1h-7.9v22.6Z" class="g0"/>
<path fill-rule="evenodd" d="M415.5,200.2H602.4V188.7H415.5v11.5Z" class="g0"/>
<path fill-rule="evenodd" d="M423.4,188.7H594.5V166.1H423.4v22.6Z" class="g0"/>
<path fill-rule="evenodd" d="M603.3,166.1H790.1V154.6H603.3v11.5Z" class="g0"/>
<path fill-rule="evenodd" d="M603.3,188.7H611V166.1h-7.7v22.6Z" class="g0"/>
<path fill-rule="evenodd" d="M782.3,188.7h7.8V166.1h-7.8v22.6Z" class="g0"/>
<path fill-rule="evenodd" d="M603.3,200.2H790.1V188.7H603.3v11.5Z" class="g0"/>
<path fill-rule="evenodd" d="M611,188.7H782.2V166.1H611v22.6Z" class="g0"/>
<path fill-rule="evenodd" d="M175.1,154.6h.7v-.8h-.7v.8Z" class="g1"/>
<path fill-rule="evenodd" d="M175.1,154.6h.7v-.8h-.7v.8Z" class="g1"/>
<path fill-rule="evenodd" d="M175.8,154.6h51.4v-.8H175.8v.8Z" class="g1"/>
<path fill-rule="evenodd" d="M227.2,154.6h.7v-.8h-.7v.8Z" class="g1"/>
<path fill-rule="evenodd" d="M227.9,154.6H414.8v-.8H227.9v.8Z" class="g1"/>
<path fill-rule="evenodd" d="M414.8,154.6h.7v-.8h-.7v.8Z" class="g1"/>
<path fill-rule="evenodd" d="M415.5,154.6h187v-.8h-187v.8Z" class="g1"/>
<path fill-rule="evenodd" d="M602.5,154.6h.8v-.8h-.8v.8Z" class="g1"/>
<path fill-rule="evenodd" d="M603.3,154.6H790.1v-.8H603.3v.8Z" class="g1"/>
<path fill-rule="evenodd" d="M790.1,154.6h.8v-.8h-.8v.8Z" class="g1"/>
<path fill-rule="evenodd" d="M790.1,154.6h.8v-.8h-.8v.8Z" class="g1"/>
<path fill-rule="evenodd" d="M175.1,200.2h.7V154.6h-.7v45.6Z" class="g1"/>
<path fill-rule="evenodd" d="M227.2,200.2h.7V154.6h-.7v45.6Z" class="g1"/>
<path fill-rule="evenodd" d="M414.8,200.2h.7V154.6h-.7v45.6Z" class="g1"/>
<path fill-rule="evenodd" d="M602.5,200.2h.8V154.6h-.8v45.6Z" class="g1"/>
<path fill-rule="evenodd" d="M790.1,200.2h.8V154.6h-.8v45.6Z" class="g1"/>
<path fill-rule="evenodd" d="M175.1,201h.7v-.8h-.7v.8Z" class="g1"/>
<path fill-rule="evenodd" d="M175.8,201h51.4v-.8H175.8v.8Z" class="g1"/>
<path fill-rule="evenodd" d="M227.2,201h.7v-.8h-.7v.8Z" class="g1"/>
<path fill-rule="evenodd" d="M227.9,201H414.8v-.8H227.9v.8Z" class="g1"/>
<path fill-rule="evenodd" d="M414.8,201h.7v-.8h-.7v.8Z" class="g1"/>
<path fill-rule="evenodd" d="M415.5,201h187v-.8h-187v.8Z" class="g1"/>
<path fill-rule="evenodd" d="M602.5,201h.8v-.8h-.8v.8Z" class="g1"/>
<path fill-rule="evenodd" d="M603.3,201H790.1v-.8H603.3v.8Z" class="g1"/>
<path fill-rule="evenodd" d="M790.1,201h.8v-.8h-.8v.8Z" class="g1"/>
<path fill-rule="evenodd" d="M175.1,244.2h.7V201h-.7v43.2Z" class="g1"/>
<path fill-rule="evenodd" d="M227.2,244.2h.7V201h-.7v43.2Z" class="g1"/>
<path fill-rule="evenodd" d="M414.8,244.2h.7V201h-.7v43.2Z" class="g1"/>
<path fill-rule="evenodd" d="M602.5,244.2h.8V201h-.8v43.2Z" class="g1"/>
<path fill-rule="evenodd" d="M790.1,244.2h.8V201h-.8v43.2Z" class="g1"/>
<path fill-rule="evenodd" d="M175.1,245h.7v-.8h-.7v.8Z" class="g1"/>
<path fill-rule="evenodd" d="M175.8,245h51.4v-.8H175.8v.8Z" class="g1"/>
<path fill-rule="evenodd" d="M227.2,245h.7v-.8h-.7v.8Z" class="g1"/>
<path fill-rule="evenodd" d="M227.9,245H414.8v-.8H227.9v.8Z" class="g1"/>
<path fill-rule="evenodd" d="M414.8,245h.7v-.8h-.7v.8Z" class="g1"/>
<path fill-rule="evenodd" d="M415.5,245h187v-.8h-187v.8Z" class="g1"/>
<path fill-rule="evenodd" d="M602.5,245h.8v-.8h-.8v.8Z" class="g1"/>
<path fill-rule="evenodd" d="M603.3,245H790.1v-.8H603.3v.8Z" class="g1"/>
<path fill-rule="evenodd" d="M790.1,245h.8v-.8h-.8v.8Z" class="g1"/>
<path fill-rule="evenodd" d="M175.1,288.2h.7V245h-.7v43.2Z" class="g1"/>
<path fill-rule="evenodd" d="M227.2,288.2h.7V245h-.7v43.2Z" class="g1"/>
<path fill-rule="evenodd" d="M414.8,288.2h.7V245h-.7v43.2Z" class="g1"/>
<path fill-rule="evenodd" d="M602.5,288.2h.8V245h-.8v43.2Z" class="g1"/>
<path fill-rule="evenodd" d="M790.1,288.2h.8V245h-.8v43.2Z" class="g1"/>
<path fill-rule="evenodd" d="M175.1,289h.7v-.8h-.7v.8Z" class="g1"/>
<path fill-rule="evenodd" d="M175.8,289h51.4v-.8H175.8v.8Z" class="g1"/>
<path fill-rule="evenodd" d="M227.2,289h.7v-.8h-.7v.8Z" class="g1"/>
<path fill-rule="evenodd" d="M227.9,289H414.8v-.8H227.9v.8Z" class="g1"/>
<path fill-rule="evenodd" d="M414.8,289h.7v-.8h-.7v.8Z" class="g1"/>
<path fill-rule="evenodd" d="M415.5,289h187v-.8h-187v.8Z" class="g1"/>
<path fill-rule="evenodd" d="M602.5,289h.8v-.8h-.8v.8Z" class="g1"/>
<path fill-rule="evenodd" d="M603.3,289H790.1v-.8H603.3v.8Z" class="g1"/>
<path fill-rule="evenodd" d="M790.1,289h.8v-.8h-.8v.8Z" class="g1"/>
<path fill-rule="evenodd" d="M175.1,332.4h.7V289h-.7v43.4Z" class="g1"/>
<path fill-rule="evenodd" d="M227.2,332.4h.7V289h-.7v43.4Z" class="g1"/>
<path fill-rule="evenodd" d="M414.8,332.4h.7V289h-.7v43.4Z" class="g1"/>
<path fill-rule="evenodd" d="M602.5,332.4h.8V289h-.8v43.4Z" class="g1"/>
<path fill-rule="evenodd" d="M790.1,332.4h.8V289h-.8v43.4Z" class="g1"/>
<path fill-rule="evenodd" d="M175.1,333.1h.7v-.7h-.7v.7Z" class="g1"/>
<path fill-rule="evenodd" d="M175.8,333.1h51.4v-.7H175.8v.7Z" class="g1"/>
<path fill-rule="evenodd" d="M227.2,333.1h.7v-.7h-.7v.7Z" class="g1"/>
<path fill-rule="evenodd" d="M227.9,333.1H414.8v-.7H227.9v.7Z" class="g1"/>
<path fill-rule="evenodd" d="M414.8,333.1h.7v-.7h-.7v.7Z" class="g1"/>
<path fill-rule="evenodd" d="M415.5,333.1h187v-.7h-187v.7Z" class="g1"/>
<path fill-rule="evenodd" d="M602.5,333.1h.8v-.7h-.8v.7Z" class="g1"/>
<path fill-rule="evenodd" d="M603.3,333.1H790.1v-.7H603.3v.7Z" class="g1"/>
<path fill-rule="evenodd" d="M790.1,333.1h.8v-.7h-.8v.7Z" class="g1"/>
<path fill-rule="evenodd" d="M175.1,376.4h.7V333.1h-.7v43.3Z" class="g1"/>
<path fill-rule="evenodd" d="M175.1,377.1h.7v-.7h-.7v.7Z" class="g1"/>
<path fill-rule="evenodd" d="M175.1,377.1h.7v-.7h-.7v.7Z" class="g1"/>
<path fill-rule="evenodd" d="M175.8,377.1h51.4v-.7H175.8v.7Z" class="g1"/>
<path fill-rule="evenodd" d="M227.2,376.4h.7V333.1h-.7v43.3Z" class="g1"/>
<path fill-rule="evenodd" d="M227.2,377.1h.7v-.7h-.7v.7Z" class="g1"/>
<path fill-rule="evenodd" d="M227.9,377.1H414.8v-.7H227.9v.7Z" class="g1"/>
<path fill-rule="evenodd" d="M414.8,376.4h.7V333.1h-.7v43.3Z" class="g1"/>
<path fill-rule="evenodd" d="M414.8,377.1h.7v-.7h-.7v.7Z" class="g1"/>
<path fill-rule="evenodd" d="M415.5,377.1h187v-.7h-187v.7Z" class="g1"/>
<path fill-rule="evenodd" d="M602.5,376.4h.8V333.1h-.8v43.3Z" class="g1"/>
<path fill-rule="evenodd" d="M602.5,377.1h.8v-.7h-.8v.7Z" class="g1"/>
<path fill-rule="evenodd" d="M603.3,377.1H790.1v-.7H603.3v.7Z" class="g1"/>
<path fill-rule="evenodd" d="M790.1,376.4h.8V333.1h-.8v43.3Z" class="g1"/>
<path fill-rule="evenodd" d="M790.1,377.1h.8v-.7h-.8v.7Z" class="g1"/>
<path fill-rule="evenodd" d="M790.1,377.1h.8v-.7h-.8v.7Z" class="g1"/>
<path fill-rule="evenodd" d="M164.3,109.1h.7v-.8h-.7v.8Z" class="g1"/>
<path fill-rule="evenodd" d="M164.3,109.1h.7v-.8h-.7v.8Z" class="g1"/>
<path fill-rule="evenodd" d="M165,109.1H801.1v-.8H165v.8Z" class="g1"/>
<path fill-rule="evenodd" d="M801.1,109.1h.8v-.8h-.8v.8Z" class="g1"/>
<path fill-rule="evenodd" d="M801.1,109.1h.8v-.8h-.8v.8Z" class="g1"/>
<path fill-rule="evenodd" d="M164.3,377.1h.7v-268h-.7v268Z" class="g1"/>
<path fill-rule="evenodd" d="M801.1,377.1h.8v-268h-.8v268Z" class="g1"/>
<path fill-rule="evenodd" d="M164.3,377.9h.7v-.8h-.7v.8Z" class="g1"/>
<path fill-rule="evenodd" d="M165,377.9H801.1v-.8H165v.8Z" class="g1"/>
<path fill-rule="evenodd" d="M801.1,377.9h.8v-.8h-.8v.8Z" class="g1"/>
<path fill-rule="evenodd" d="M164.3,553.4h.7V377.9h-.7V553.4Z" class="g1"/>
<path fill-rule="evenodd" d="M801.1,553.4h.8V377.9h-.8V553.4Z" class="g1"/>
<path fill-rule="evenodd" d="M164.3,554.1h.7v-.7h-.7v.7Z" class="g1"/>
<path fill-rule="evenodd" d="M165,554.1H801.1v-.7H165v.7Z" class="g1"/>
<path fill-rule="evenodd" d="M801.1,554.1h.8v-.7h-.8v.7Z" class="g1"/>
<path fill-rule="evenodd" d="M164.3,729.4h.7V554.1h-.7V729.4Z" class="g1"/>
<path fill-rule="evenodd" d="M801.1,729.4h.8V554.1h-.8V729.4Z" class="g1"/>
<path fill-rule="evenodd" d="M164.3,730.1h.7v-.7h-.7v.7Z" class="g1"/>
<path fill-rule="evenodd" d="M165,730.1H482.6v-.7H165v.7Z" class="g1"/>
<path fill-rule="evenodd" d="M482.6,730.1h.7v-.7h-.7v.7Z" class="g1"/>
<path fill-rule="evenodd" d="M483.3,730.1H801.1v-.7H483.3v.7Z" class="g1"/>
<path fill-rule="evenodd" d="M801.1,730.1h.8v-.7h-.8v.7Z" class="g1"/>
<path fill-rule="evenodd" d="M164.3,842.2h.7V730.1h-.7V842.2Z" class="g1"/>
<path fill-rule="evenodd" d="M164.3,842.9h.7v-.7h-.7v.7Z" class="g1"/>
<path fill-rule="evenodd" d="M164.3,842.9h.7v-.7h-.7v.7Z" class="g1"/>
<path fill-rule="evenodd" d="M165,842.9H482.6v-.7H165v.7Z" class="g1"/>
<path fill-rule="evenodd" d="M482.6,842.2h.7V730.1h-.7V842.2Z" class="g1"/>
<path fill-rule="evenodd" d="M482.6,842.9h.7v-.7h-.7v.7Z" class="g1"/>
<path fill-rule="evenodd" d="M483.3,842.9H801.1v-.7H483.3v.7Z" class="g1"/>
<path fill-rule="evenodd" d="M801.1,842.2h.8V730.1h-.8V842.2Z" class="g1"/>
<path fill-rule="evenodd" d="M801.1,842.9h.8v-.7h-.8v.7Z" class="g1"/>
<path fill-rule="evenodd" d="M801.1,842.9h.8v-.7h-.8v.7Z" class="g1"/>
<path fill-rule="evenodd" d="M165,1026.6H337.6v-3.8H165v3.8Z" class="g0"/>
<path fill-rule="evenodd" d="M165,1049h7.9v-22.4H165V1049Z" class="g0"/>
<path fill-rule="evenodd" d="M329.7,1049h7.9v-22.4h-7.9V1049Z" class="g0"/>
<path fill-rule="evenodd" d="M165,1053H337.6v-4H165v4Z" class="g0"/>
<path fill-rule="evenodd" d="M172.9,1049H329.7v-22.4H172.9V1049Z" class="g0"/>
<path fill-rule="evenodd" d="M338.3,1026.6H485v-3.8H338.3v3.8Z" class="g0"/>
<path fill-rule="evenodd" d="M338.3,1049h7.9v-22.4h-7.9V1049Z" class="g0"/>
<path fill-rule="evenodd" d="M477.1,1049H485v-22.4h-7.9V1049Z" class="g0"/>
<path fill-rule="evenodd" d="M338.3,1053H485v-4H338.3v4Z" class="g0"/>
<path fill-rule="evenodd" d="M346.2,1049H477.1v-22.4H346.2V1049Z" class="g0"/>
<path fill-rule="evenodd" d="M485.8,1026.6H642.9v-3.8H485.8v3.8Z" class="g0"/>
<path fill-rule="evenodd" d="M485.8,1049h7.8v-22.4h-7.8V1049Z" class="g0"/>
<path fill-rule="evenodd" d="M635,1049h7.9v-22.4H635V1049Z" class="g0"/>
<path fill-rule="evenodd" d="M485.8,1053H642.9v-4H485.8v4Z" class="g0"/>
<path fill-rule="evenodd" d="M493.6,1049H635v-22.4H493.6V1049Z" class="g0"/>
<path fill-rule="evenodd" d="M643.6,1026.6H800.8v-3.8H643.6v3.8Z" class="g0"/>
<path fill-rule="evenodd" d="M643.6,1049h7.9v-22.4h-7.9V1049Z" class="g0"/>
<path fill-rule="evenodd" d="M793.1,1049h7.7v-22.4h-7.7V1049Z" class="g0"/>
<path fill-rule="evenodd" d="M643.6,1053H800.8v-4H643.6v4Z" class="g0"/>
<path fill-rule="evenodd" d="M651.5,1049H793.1v-22.4H651.5V1049Z" class="g0"/>
<path fill-rule="evenodd" d="M164.3,1022.6h.7v-.7h-.7v.7Z" class="g1"/>
<path fill-rule="evenodd" d="M164.3,1022.6h.7v-.7h-.7v.7Z" class="g1"/>
<path fill-rule="evenodd" d="M165,1022.6H337.6v-.7H165v.7Z" class="g1"/>
<path fill-rule="evenodd" d="M337.6,1022.6h.7v-.7h-.7v.7Z" class="g1"/>
<path fill-rule="evenodd" d="M338.3,1022.6H485v-.7H338.3v.7Z" class="g1"/>
<path fill-rule="evenodd" d="M485,1022.6h.8v-.7H485v.7Z" class="g1"/>
<path fill-rule="evenodd" d="M485.8,1022.6H642.9v-.7H485.8v.7Z" class="g1"/>
<path fill-rule="evenodd" d="M642.9,1022.6h.7v-.7h-.7v.7Z" class="g1"/>
<path fill-rule="evenodd" d="M643.6,1022.6H800.9v-.7H643.6v.7Z" class="g1"/>
<path fill-rule="evenodd" d="M801,1022.6h.7v-.7H801v.7Z" class="g1"/>
<path fill-rule="evenodd" d="M801,1022.6h.7v-.7H801v.7Z" class="g1"/>
<path fill-rule="evenodd" d="M164.3,1053h.7v-30.4h-.7V1053Z" class="g1"/>
<path fill-rule="evenodd" d="M337.6,1053h.7v-30.4h-.7V1053Z" class="g1"/>
<path fill-rule="evenodd" d="M485,1053h.8v-30.4H485V1053Z" class="g1"/>
<path fill-rule="evenodd" d="M642.9,1053h.7v-30.4h-.7V1053Z" class="g1"/>
<path fill-rule="evenodd" d="M801,1053h.7v-30.4H801V1053Z" class="g1"/>
<path fill-rule="evenodd" d="M164.3,1053.8h.7v-.8h-.7v.8Z" class="g1"/>
<path fill-rule="evenodd" d="M165,1053.8H337.6v-.8H165v.8Z" class="g1"/>
<path fill-rule="evenodd" d="M337.6,1053.8h.7v-.8h-.7v.8Z" class="g1"/>
<path fill-rule="evenodd" d="M338.3,1053.8H485v-.8H338.3v.8Z" class="g1"/>
<path fill-rule="evenodd" d="M485,1053.8h.8v-.8H485v.8Z" class="g1"/>
<path fill-rule="evenodd" d="M485.8,1053.8H642.9v-.8H485.8v.8Z" class="g1"/>
<path fill-rule="evenodd" d="M642.9,1053.8h.7v-.8h-.7v.8Z" class="g1"/>
<path fill-rule="evenodd" d="M643.6,1053.8H800.9v-.8H643.6v.8Z" class="g1"/>
<path fill-rule="evenodd" d="M801,1053.8h.7v-.8H801v.8Z" class="g1"/>
<path fill-rule="evenodd" d="M164.3,1097h.7v-43.2h-.7V1097Z" class="g1"/>
<path fill-rule="evenodd" d="M337.6,1097h.7v-43.2h-.7V1097Z" class="g1"/>
<path fill-rule="evenodd" d="M485,1097h.8v-43.2H485V1097Z" class="g1"/>
<path fill-rule="evenodd" d="M642.9,1097h.7v-43.2h-.7V1097Z" class="g1"/>
<path fill-rule="evenodd" d="M801,1097h.7v-43.2H801V1097Z" class="g1"/>
<path fill-rule="evenodd" d="M164.3,1097.8h.7v-.8h-.7v.8Z" class="g1"/>
<path fill-rule="evenodd" d="M165,1097.8H337.6v-.8H165v.8Z" class="g1"/>
<path fill-rule="evenodd" d="M337.6,1097.8h.7v-.8h-.7v.8Z" class="g1"/>
<path fill-rule="evenodd" d="M338.3,1097.8H485v-.8H338.3v.8Z" class="g1"/>
<path fill-rule="evenodd" d="M485,1097.8h.8v-.8H485v.8Z" class="g1"/>
<path fill-rule="evenodd" d="M485.8,1097.8H642.9v-.8H485.8v.8Z" class="g1"/>
<path fill-rule="evenodd" d="M642.9,1097.8h.7v-.8h-.7v.8Z" class="g1"/>
<path fill-rule="evenodd" d="M643.6,1097.8H800.9v-.8H643.6v.8Z" class="g1"/>
<path fill-rule="evenodd" d="M801,1097.8h.7v-.8H801v.8Z" class="g1"/>
<path fill-rule="evenodd" d="M164.3,1142.7h.7v-44.9h-.7v44.9Z" class="g1"/>
<path fill-rule="evenodd" d="M164.3,1143.4h.7v-.7h-.7v.7Z" class="g1"/>
<path fill-rule="evenodd" d="M164.3,1143.4h.7v-.7h-.7v.7Z" class="g1"/>
<path fill-rule="evenodd" d="M165,1143.4H337.6v-.7H165v.7Z" class="g1"/>
<path fill-rule="evenodd" d="M337.6,1142.7h.7v-44.9h-.7v44.9Z" class="g1"/>
<path fill-rule="evenodd" d="M337.6,1143.4h.7v-.7h-.7v.7Z" class="g1"/>
<path fill-rule="evenodd" d="M338.3,1143.4H485v-.7H338.3v.7Z" class="g1"/>
<path fill-rule="evenodd" d="M485,1142.7h.8v-44.9H485v44.9Z" class="g1"/>
<path fill-rule="evenodd" d="M485,1143.4h.8v-.7H485v.7Z" class="g1"/>
<path fill-rule="evenodd" d="M485.8,1143.4H642.9v-.7H485.8v.7Z" class="g1"/>
<path fill-rule="evenodd" d="M642.9,1142.7h.7v-44.9h-.7v44.9Z" class="g1"/>
<path fill-rule="evenodd" d="M642.9,1143.4h.7v-.7h-.7v.7Z" class="g1"/>
<path fill-rule="evenodd" d="M643.6,1143.4H800.9v-.7H643.6v.7Z" class="g1"/>
<path fill-rule="evenodd" d="M801,1142.7h.7v-44.9H801v44.9Z" class="g1"/>
<path fill-rule="evenodd" d="M801,1143.4h.7v-.7H801v.7Z" class="g1"/>
<path fill-rule="evenodd" d="M801,1143.4h.7v-.7H801v.7Z" class="g1"/>
</svg>