<?xml version="1.0" encoding="UTF-8" standalone="no"?>
<!DOCTYPE svg PUBLIC "-//W3C//DTD SVG 1.1//EN"
"http://www.w3.org/Graphics/SVG/1.1/DTD/svg11.dtd">
<svg viewBox="0 0 909 1286" version="1.1" xmlns="http://www.w3.org/2000/svg" xmlns:xlink="http://www.w3.org/1999/xlink">
<defs>
<style type="text/css"><![CDATA[
.g0_2{
}
.g1_2{
fill: #D9D9D9;
}
]]></style>
</defs>
<path fill-rule="evenodd" d="M164.3,109.1h.7v-.8h-.7v.8Z" class="g0_2"/>
<path fill-rule="evenodd" d="M164.3,109.1h.7v-.8h-.7v.8Z" class="g0_2"/>
<path fill-rule="evenodd" d="M165,109.1H801.1v-.8H165v.8Z" class="g0_2"/>
<path fill-rule="evenodd" d="M801.1,109.1h.8v-.8h-.8v.8Z" class="g0_2"/>
<path fill-rule="evenodd" d="M801.1,109.1h.8v-.8h-.8v.8Z" class="g0_2"/>
<path fill-rule="evenodd" d="M164.3,183.7h.7V109.1h-.7v74.6Z" class="g0_2"/>
<path fill-rule="evenodd" d="M801.1,183.7h.8V109.1h-.8v74.6Z" class="g0_2"/>
<path fill-rule="evenodd" d="M213.4,229.9h.8v-.7h-.8v.7Z" class="g0_2"/>
<path fill-rule="evenodd" d="M213.4,229.9h.8v-.7h-.8v.7Z" class="g0_2"/>
<path fill-rule="evenodd" d="M214.2,229.9h25.1v-.7H214.2v.7Z" class="g0_2"/>
<path fill-rule="evenodd" d="M239.3,229.9h.7v-.7h-.7v.7Z" class="g0_2"/>
<path fill-rule="evenodd" d="M239.3,229.9h.7v-.7h-.7v.7Z" class="g0_2"/>
<path fill-rule="evenodd" d="M326,229.9h.8v-.7H326v.7Z" class="g0_2"/>
<path fill-rule="evenodd" d="M326,229.9h.8v-.7H326v.7Z" class="g0_2"/>
<path fill-rule="evenodd" d="M326.8,229.9h25.1v-.7H326.8v.7Z" class="g0_2"/>
<path fill-rule="evenodd" d="M351.9,229.9h.7v-.7h-.7v.7Z" class="g0_2"/>
<path fill-rule="evenodd" d="M351.9,229.9h.7v-.7h-.7v.7Z" class="g0_2"/>
<path fill-rule="evenodd" d="M213.4,256h.8V229.9h-.8V256Z" class="g0_2"/>
<path fill-rule="evenodd" d="M239.3,256h.7V229.9h-.7V256Z" class="g0_2"/>
<path fill-rule="evenodd" d="M326,256h.8V229.9H326V256Z" class="g0_2"/>
<path fill-rule="evenodd" d="M351.9,256h.7V229.9h-.7V256Z" class="g0_2"/>
<path fill-rule="evenodd" d="M213.4,256.7h.8V256h-.8v.7Z" class="g0_2"/>
<path fill-rule="evenodd" d="M213.4,256.7h.8V256h-.8v.7Z" class="g0_2"/>
<path fill-rule="evenodd" d="M214.2,256.7h.7V256h-.7v.7Z" class="g0_2"/>
<path fill-rule="evenodd" d="M214.9,256.7h24.4V256H214.9v.7Z" class="g0_2"/>
<path fill-rule="evenodd" d="M239.3,256.7h.7V256h-.7v.7Z" class="g0_2"/>
<path fill-rule="evenodd" d="M239.3,256.7h.7V256h-.7v.7Z" class="g0_2"/>
<path fill-rule="evenodd" d="M326,256.7h.8V256H326v.7Z" class="g0_2"/>
<path fill-rule="evenodd" d="M326,256.7h.8V256H326v.7Z" class="g0_2"/>
<path fill-rule="evenodd" d="M326.8,256.7h.7V256h-.7v.7Z" class="g0_2"/>
<path fill-rule="evenodd" d="M327.5,256.7h24.4V256H327.5v.7Z" class="g0_2"/>
<path fill-rule="evenodd" d="M351.9,256.7h.7V256h-.7v.7Z" class="g0_2"/>
<path fill-rule="evenodd" d="M351.9,256.7h.7V256h-.7v.7Z" class="g0_2"/>
<path fill-rule="evenodd" d="M213.4,272.5h.8v-.8h-.8v.8Z" class="g0_2"/>
<path fill-rule="evenodd" d="M213.4,272.5h.8v-.8h-.8v.8Z" class="g0_2"/>
<path fill-rule="evenodd" d="M214.2,272.5h.7v-.8h-.7v.8Z" class="g0_2"/>
<path fill-rule="evenodd" d="M214.9,272.5h24.4v-.8H214.9v.8Z" class="g0_2"/>
<path fill-rule="evenodd" d="M239.3,272.5h.7v-.8h-.7v.8Z" class="g0_2"/>
<path fill-rule="evenodd" d="M239.3,272.5h.7v-.8h-.7v.8Z" class="g0_2"/>
<path fill-rule="evenodd" d="M326,272.5h.8v-.8H326v.8Z" class="g0_2"/>
<path fill-rule="evenodd" d="M326,272.5h.8v-.8H326v.8Z" class="g0_2"/>
<path fill-rule="evenodd" d="M326.8,272.5h.7v-.8h-.7v.8Z" class="g0_2"/>
<path fill-rule="evenodd" d="M327.5,272.5h24.4v-.8H327.5v.8Z" class="g0_2"/>
<path fill-rule="evenodd" d="M351.9,272.5h.7v-.8h-.7v.8Z" class="g0_2"/>
<path fill-rule="evenodd" d="M351.9,272.5h.7v-.8h-.7v.8Z" class="g0_2"/>
<path fill-rule="evenodd" d="M213.4,298.5h.8v-26h-.8v26Z" class="g0_2"/>
<path fill-rule="evenodd" d="M213.4,299.2h.8v-.7h-.8v.7Z" class="g0_2"/>
<path fill-rule="evenodd" d="M213.4,299.2h.8v-.7h-.8v.7Z" class="g0_2"/>
<path fill-rule="evenodd" d="M214.2,299.2h25.1v-.7H214.2v.7Z" class="g0_2"/>
<path fill-rule="evenodd" d="M239.3,298.5h.7v-26h-.7v26Z" class="g0_2"/>
<path fill-rule="evenodd" d="M239.3,299.2h.7v-.7h-.7v.7Z" class="g0_2"/>
<path fill-rule="evenodd" d="M239.3,299.2h.7v-.7h-.7v.7Z" class="g0_2"/>
<path fill-rule="evenodd" d="M326,298.5h.8v-26H326v26Z" class="g0_2"/>
<path fill-rule="evenodd" d="M326,299.2h.8v-.7H326v.7Z" class="g0_2"/>
<path fill-rule="evenodd" d="M326,299.2h.8v-.7H326v.7Z" class="g0_2"/>
<path fill-rule="evenodd" d="M326.8,299.2h25.1v-.7H326.8v.7Z" class="g0_2"/>
<path fill-rule="evenodd" d="M351.9,298.5h.7v-26h-.7v26Z" class="g0_2"/>
<path fill-rule="evenodd" d="M351.9,299.2h.7v-.7h-.7v.7Z" class="g0_2"/>
<path fill-rule="evenodd" d="M351.9,299.2h.7v-.7h-.7v.7Z" class="g0_2"/>
<path fill-rule="evenodd" d="M164.3,184.5h.7v-.8h-.7v.8Z" class="g0_2"/>
<path fill-rule="evenodd" d="M165,184.5H482.6v-.8H165v.8Z" class="g0_2"/>
<path fill-rule="evenodd" d="M482.6,184.5h.7v-.8h-.7v.8Z" class="g0_2"/>
<path fill-rule="evenodd" d="M483.3,184.5H801.1v-.8H483.3v.8Z" class="g0_2"/>
<path fill-rule="evenodd" d="M801.1,184.5h.8v-.8h-.8v.8Z" class="g0_2"/>
<path fill-rule="evenodd" d="M164.3,310.4h.7V184.5h-.7V310.4Z" class="g0_2"/>
<path fill-rule="evenodd" d="M482.6,310.4h.7V184.5h-.7V310.4Z" class="g0_2"/>
<path fill-rule="evenodd" d="M801.1,310.4h.8V184.5h-.8V310.4Z" class="g0_2"/>
<path fill-rule="evenodd" d="M164.3,311.1h.7v-.7h-.7v.7Z" class="g0_2"/>
<path fill-rule="evenodd" d="M165,311.1H482.6v-.7H165v.7Z" class="g0_2"/>
<path fill-rule="evenodd" d="M482.6,311.1h.7v-.7h-.7v.7Z" class="g0_2"/>
<path fill-rule="evenodd" d="M483.3,311.1H801.1v-.7H483.3v.7Z" class="g0_2"/>
<path fill-rule="evenodd" d="M801.1,311.1h.8v-.7h-.8v.7Z" class="g0_2"/>
<path fill-rule="evenodd" d="M164.3,355.9h.7V311.1h-.7v44.8Z" class="g0_2"/>
<path fill-rule="evenodd" d="M482.6,355.9h.7V311.1h-.7v44.8Z" class="g0_2"/>
<path fill-rule="evenodd" d="M801.1,355.9h.8V311.1h-.8v44.8Z" class="g0_2"/>
<path fill-rule="evenodd" d="M164.3,356.6h.7v-.7h-.7v.7Z" class="g0_2"/>
<path fill-rule="evenodd" d="M165,356.6H482.6v-.7H165v.7Z" class="g0_2"/>
<path fill-rule="evenodd" d="M482.6,356.6h.7v-.7h-.7v.7Z" class="g0_2"/>
<path fill-rule="evenodd" d="M483.3,356.6H801.1v-.7H483.3v.7Z" class="g0_2"/>
<path fill-rule="evenodd" d="M801.1,356.6h.8v-.7h-.8v.7Z" class="g0_2"/>
<path fill-rule="evenodd" d="M164.3,446.1h.7V356.6h-.7v89.5Z" class="g0_2"/>
<path fill-rule="evenodd" d="M801.1,446.1h.8V356.6h-.8v89.5Z" class="g0_2"/>
<path fill-rule="evenodd" d="M173.6,472H494.2v-1.9H173.6V472Z" class="g1_2"/>
<path fill-rule="evenodd" d="M173.6,494.3h7.9V472h-7.9v22.3Z" class="g1_2"/>
<path fill-rule="evenodd" d="M486.3,494.3h7.9V472h-7.9v22.3Z" class="g1_2"/>
<path fill-rule="evenodd" d="M173.6,496H494.2v-1.7H173.6V496Z" class="g1_2"/>
<path fill-rule="evenodd" d="M181.5,494.3H486.3V472H181.5v22.3Z" class="g1_2"/>
<path fill-rule="evenodd" d="M495.1,472H792.3v-1.9H495.1V472Z" class="g1_2"/>
<path fill-rule="evenodd" d="M495.1,494.3h7.7V472h-7.7v22.3Z" class="g1_2"/>
<path fill-rule="evenodd" d="M784.5,494.3h7.8V472h-7.8v22.3Z" class="g1_2"/>
<path fill-rule="evenodd" d="M495.1,496H792.3v-1.7H495.1V496Z" class="g1_2"/>
<path fill-rule="evenodd" d="M502.8,494.3H784.4V472H502.8v22.3Z" class="g1_2"/>
<path fill-rule="evenodd" d="M172.9,470.1h.7v-.7h-.7v.7Z" class="g0_2"/>
<path fill-rule="evenodd" d="M172.9,470.1h.7v-.7h-.7v.7Z" class="g0_2"/>
<path fill-rule="evenodd" d="M173.6,470.1H494.4v-.7H173.6v.7Z" class="g0_2"/>
<path fill-rule="evenodd" d="M494.4,470.1h.7v-.7h-.7v.7Z" class="g0_2"/>
<path fill-rule="evenodd" d="M495.1,470.1H792.3v-.7H495.1v.7Z" class="g0_2"/>
<path fill-rule="evenodd" d="M792.3,470.1h.8v-.7h-.8v.7Z" class="g0_2"/>
<path fill-rule="evenodd" d="M792.3,470.1h.8v-.7h-.8v.7Z" class="g0_2"/>
<path fill-rule="evenodd" d="M172.9,496h.7V470.1h-.7V496Z" class="g0_2"/>
<path fill-rule="evenodd" d="M494.4,496h.7V470.1h-.7V496Z" class="g0_2"/>
<path fill-rule="evenodd" d="M792.3,496h.8V470.1h-.8V496Z" class="g0_2"/>
<path fill-rule="evenodd" d="M213.8,507.9h.7v-.7h-.7v.7Z" class="g0_2"/>
<path fill-rule="evenodd" d="M213.8,507.9h.7v-.7h-.7v.7Z" class="g0_2"/>
<path fill-rule="evenodd" d="M214.5,507.9h33.9v-.7H214.5v.7Z" class="g0_2"/>
<path fill-rule="evenodd" d="M248.4,507.9h.8v-.7h-.8v.7Z" class="g0_2"/>
<path fill-rule="evenodd" d="M248.4,507.9h.8v-.7h-.8v.7Z" class="g0_2"/>
<path fill-rule="evenodd" d="M213.8,535.6h.7V507.9h-.7v27.7Z" class="g0_2"/>
<path fill-rule="evenodd" d="M248.4,535.6h.8V507.9h-.8v27.7Z" class="g0_2"/>
<path fill-rule="evenodd" d="M213.8,536.3h.7v-.7h-.7v.7Z" class="g0_2"/>
<path fill-rule="evenodd" d="M213.8,536.3h.7v-.7h-.7v.7Z" class="g0_2"/>
<path fill-rule="evenodd" d="M214.5,536.3h.8v-.7h-.8v.7Z" class="g0_2"/>
<path fill-rule="evenodd" d="M215.3,536.3h33.1v-.7H215.3v.7Z" class="g0_2"/>
<path fill-rule="evenodd" d="M248.4,536.3h.8v-.7h-.8v.7Z" class="g0_2"/>
<path fill-rule="evenodd" d="M522.1,512.5h.7v-.7h-.7v.7Z" class="g0_2"/>
<path fill-rule="evenodd" d="M522.1,512.5h.7v-.7h-.7v.7Z" class="g0_2"/>
<path fill-rule="evenodd" d="M522.8,512.5h25.1v-.7H522.8v.7Z" class="g0_2"/>
<path fill-rule="evenodd" d="M547.9,512.5h.7v-.7h-.7v.7Z" class="g0_2"/>
<path fill-rule="evenodd" d="M547.9,512.5h.7v-.7h-.7v.7Z" class="g0_2"/>
<path fill-rule="evenodd" d="M643.2,512.5h.8v-.7h-.8v.7Z" class="g0_2"/>
<path fill-rule="evenodd" d="M643.2,512.5h.8v-.7h-.8v.7Z" class="g0_2"/>
<path fill-rule="evenodd" d="M644,512.5h25.3v-.7H644v.7Z" class="g0_2"/>
<path fill-rule="evenodd" d="M669.3,512.5h.7v-.7h-.7v.7Z" class="g0_2"/>
<path fill-rule="evenodd" d="M669.3,512.5h.7v-.7h-.7v.7Z" class="g0_2"/>
<path fill-rule="evenodd" d="M522.1,538.5h.7v-26h-.7v26Z" class="g0_2"/>
<path fill-rule="evenodd" d="M547.9,538.5h.7v-26h-.7v26Z" class="g0_2"/>
<path fill-rule="evenodd" d="M643.2,538.5h.8v-26h-.8v26Z" class="g0_2"/>
<path fill-rule="evenodd" d="M669.3,538.5h.7v-26h-.7v26Z" class="g0_2"/>
<path fill-rule="evenodd" d="M522.1,539.3h.7v-.8h-.7v.8Z" class="g0_2"/>
<path fill-rule="evenodd" d="M522.1,539.3h.7v-.8h-.7v.8Z" class="g0_2"/>
<path fill-rule="evenodd" d="M522.8,539.3h.7v-.8h-.7v.8Z" class="g0_2"/>
<path fill-rule="evenodd" d="M523.5,539.3h24.4v-.8H523.5v.8Z" class="g0_2"/>
<path fill-rule="evenodd" d="M547.9,539.3h.7v-.8h-.7v.8Z" class="g0_2"/>
<path fill-rule="evenodd" d="M643.2,539.3h.8v-.8h-.8v.8Z" class="g0_2"/>
<path fill-rule="evenodd" d="M643.2,539.3h.8v-.8h-.8v.8Z" class="g0_2"/>
<path fill-rule="evenodd" d="M644,539.3h.7v-.8H644v.8Z" class="g0_2"/>
<path fill-rule="evenodd" d="M644.7,539.3h24.6v-.8H644.7v.8Z" class="g0_2"/>
<path fill-rule="evenodd" d="M669.3,539.3h.7v-.8h-.7v.8Z" class="g0_2"/>
<path fill-rule="evenodd" d="M172.9,496.7h.7V496h-.7v.7Z" class="g0_2"/>
<path fill-rule="evenodd" d="M173.6,496.7H494.4V496H173.6v.7Z" class="g0_2"/>
<path fill-rule="evenodd" d="M494.4,496.7h.7V496h-.7v.7Z" class="g0_2"/>
<path fill-rule="evenodd" d="M495.1,496.7H792.3V496H495.1v.7Z" class="g0_2"/>
<path fill-rule="evenodd" d="M792.3,496.7h.8V496h-.8v.7Z" class="g0_2"/>
<path fill-rule="evenodd" d="M172.9,565.3h.7V496.7h-.7v68.6Z" class="g0_2"/>
<path fill-rule="evenodd" d="M494.4,565.3h.7V496.7h-.7v68.6Z" class="g0_2"/>
<path fill-rule="evenodd" d="M792.3,565.3h.8V496.7h-.8v68.6Z" class="g0_2"/>
<path fill-rule="evenodd" d="M173.6,567.9H792.3V566H173.6v1.9Z" class="g1_2"/>
<path fill-rule="evenodd" d="M173.6,590.2h7.9V567.9h-7.9v22.3Z" class="g1_2"/>
<path fill-rule="evenodd" d="M784.5,590.2h7.8V567.9h-7.8v22.3Z" class="g1_2"/>
<path fill-rule="evenodd" d="M173.6,591.9H792.3v-1.7H173.6v1.7Z" class="g1_2"/>
<path fill-rule="evenodd" d="M181.5,590.2H784.4V567.9H181.5v22.3Z" class="g1_2"/>
<path fill-rule="evenodd" d="M172.9,566h.7v-.7h-.7v.7Z" class="g0_2"/>
<path fill-rule="evenodd" d="M173.6,566H494.4v-.7H173.6v.7Z" class="g0_2"/>
<path fill-rule="evenodd" d="M494.4,566h.7v-.7h-.7v.7Z" class="g0_2"/>
<path fill-rule="evenodd" d="M495.1,566H792.3v-.7H495.1v.7Z" class="g0_2"/>
<path fill-rule="evenodd" d="M792.3,566h.8v-.7h-.8v.7Z" class="g0_2"/>
<path fill-rule="evenodd" d="M172.9,591.9h.7V566h-.7v25.9Z" class="g0_2"/>
<path fill-rule="evenodd" d="M792.3,591.9h.8V566h-.8v25.9Z" class="g0_2"/>
<path fill-rule="evenodd" d="M205.5,608.4h.8v-.8h-.8v.8Z" class="g0_2"/>
<path fill-rule="evenodd" d="M205.5,608.4h.8v-.8h-.8v.8Z" class="g0_2"/>
<path fill-rule="evenodd" d="M206.3,608.4h24.4v-.8H206.3v.8Z" class="g0_2"/>
<path fill-rule="evenodd" d="M230.7,608.4h.7v-.8h-.7v.8Z" class="g0_2"/>
<path fill-rule="evenodd" d="M230.7,608.4h.7v-.8h-.7v.8Z" class="g0_2"/>
<path fill-rule="evenodd" d="M343.3,608.4h.7v-.8h-.7v.8Z" class="g0_2"/>
<path fill-rule="evenodd" d="M343.3,608.4h.7v-.8h-.7v.8Z" class="g0_2"/>
<path fill-rule="evenodd" d="M344,608.4h24.2v-.8H344v.8Z" class="g0_2"/>
<path fill-rule="evenodd" d="M368.2,608.4h.7v-.8h-.7v.8Z" class="g0_2"/>
<path fill-rule="evenodd" d="M368.2,608.4h.7v-.8h-.7v.8Z" class="g0_2"/>
<path fill-rule="evenodd" d="M481,608.4h.7v-.8H481v.8Z" class="g0_2"/>
<path fill-rule="evenodd" d="M481,608.4h.7v-.8H481v.8Z" class="g0_2"/>
<path fill-rule="evenodd" d="M481.7,608.4h25.1v-.8H481.7v.8Z" class="g0_2"/>
<path fill-rule="evenodd" d="M506.8,608.4h.8v-.8h-.8v.8Z" class="g0_2"/>
<path fill-rule="evenodd" d="M506.8,608.4h.8v-.8h-.8v.8Z" class="g0_2"/>
<path fill-rule="evenodd" d="M621.2,608.4h.8v-.8h-.8v.8Z" class="g0_2"/>
<path fill-rule="evenodd" d="M621.2,608.4h.8v-.8h-.8v.8Z" class="g0_2"/>
<path fill-rule="evenodd" d="M622,608.4h25.3v-.8H622v.8Z" class="g0_2"/>
<path fill-rule="evenodd" d="M647.3,608.4h.7v-.8h-.7v.8Z" class="g0_2"/>
<path fill-rule="evenodd" d="M647.3,608.4h.7v-.8h-.7v.8Z" class="g0_2"/>
<path fill-rule="evenodd" d="M205.5,634.4h.8v-26h-.8v26Z" class="g0_2"/>
<path fill-rule="evenodd" d="M230.7,634.4h.7v-26h-.7v26Z" class="g0_2"/>
<path fill-rule="evenodd" d="M343.3,634.4h.7v-26h-.7v26Z" class="g0_2"/>
<path fill-rule="evenodd" d="M368.2,634.4h.7v-26h-.7v26Z" class="g0_2"/>
<path fill-rule="evenodd" d="M481,634.4h.7v-26H481v26Z" class="g0_2"/>
<path fill-rule="evenodd" d="M506.8,634.4h.8v-26h-.8v26Z" class="g0_2"/>
<path fill-rule="evenodd" d="M621.2,634.4h.8v-26h-.8v26Z" class="g0_2"/>
<path fill-rule="evenodd" d="M647.3,634.4h.7v-26h-.7v26Z" class="g0_2"/>
<path fill-rule="evenodd" d="M205.5,635.1h.8v-.7h-.8v.7Z" class="g0_2"/>
<path fill-rule="evenodd" d="M205.5,635.1h.8v-.7h-.8v.7Z" class="g0_2"/>
<path fill-rule="evenodd" d="M206.3,635.1h.7v-.7h-.7v.7Z" class="g0_2"/>
<path fill-rule="evenodd" d="M207,635.1h23.7v-.7H207v.7Z" class="g0_2"/>
<path fill-rule="evenodd" d="M230.7,635.1h.7v-.7h-.7v.7Z" class="g0_2"/>
<path fill-rule="evenodd" d="M343.3,635.1h.7v-.7h-.7v.7Z" class="g0_2"/>
<path fill-rule="evenodd" d="M343.3,635.1h.7v-.7h-.7v.7Z" class="g0_2"/>
<path fill-rule="evenodd" d="M344,635.1h.7v-.7H344v.7Z" class="g0_2"/>
<path fill-rule="evenodd" d="M344.7,635.1h23.5v-.7H344.7v.7Z" class="g0_2"/>
<path fill-rule="evenodd" d="M368.2,635.1h.7v-.7h-.7v.7Z" class="g0_2"/>
<path fill-rule="evenodd" d="M481,635.1h.7v-.7H481v.7Z" class="g0_2"/>
<path fill-rule="evenodd" d="M481,635.1h.7v-.7H481v.7Z" class="g0_2"/>
<path fill-rule="evenodd" d="M481.7,635.1h.7v-.7h-.7v.7Z" class="g0_2"/>
<path fill-rule="evenodd" d="M482.4,635.1h24.4v-.7H482.4v.7Z" class="g0_2"/>
<path fill-rule="evenodd" d="M506.8,635.1h.8v-.7h-.8v.7Z" class="g0_2"/>
<path fill-rule="evenodd" d="M621.2,635.1h.8v-.7h-.8v.7Z" class="g0_2"/>
<path fill-rule="evenodd" d="M621.2,635.1h.8v-.7h-.8v.7Z" class="g0_2"/>
<path fill-rule="evenodd" d="M622,635.1h.7v-.7H622v.7Z" class="g0_2"/>
<path fill-rule="evenodd" d="M622.7,635.1h24.6v-.7H622.7v.7Z" class="g0_2"/>
<path fill-rule="evenodd" d="M647.3,635.1h.7v-.7h-.7v.7Z" class="g0_2"/>
<path fill-rule="evenodd" d="M172.9,592.6h.7v-.7h-.7v.7Z" class="g0_2"/>
<path fill-rule="evenodd" d="M172.9,592.6h.7v-.7h-.7v.7Z" class="g0_2"/>
<path fill-rule="evenodd" d="M173.6,592.6h.8v-.7h-.8v.7Z" class="g0_2"/>
<path fill-rule="evenodd" d="M174.4,592.6H792.3v-.7H174.4v.7Z" class="g0_2"/>
<path fill-rule="evenodd" d="M792.3,592.6h.8v-.7h-.8v.7Z" class="g0_2"/>
<path fill-rule="evenodd" d="M173.6,700.4H792.3v-1.6H173.6v1.6Z" class="g1_2"/>
<path fill-rule="evenodd" d="M173.6,723h7.9V700.4h-7.9V723Z" class="g1_2"/>
<path fill-rule="evenodd" d="M784.5,723h7.8V700.4h-7.8V723Z" class="g1_2"/>
<path fill-rule="evenodd" d="M173.6,724.6H792.3V723H173.6v1.6Z" class="g1_2"/>
<path fill-rule="evenodd" d="M181.5,723H784.4V700.4H181.5V723Z" class="g1_2"/>
<path fill-rule="evenodd" d="M172.9,698.6h.7v-.7h-.7v.7Z" class="g0_2"/>
<path fill-rule="evenodd" d="M172.9,698.6h.7v-.7h-.7v.7Z" class="g0_2"/>
<path fill-rule="evenodd" d="M173.6,698.6h.8v-.7h-.8v.7Z" class="g0_2"/>
<path fill-rule="evenodd" d="M174.4,698.6H792.3v-.7H174.4v.7Z" class="g0_2"/>
<path fill-rule="evenodd" d="M792.3,698.6h.8v-.7h-.8v.7Z" class="g0_2"/>
<path fill-rule="evenodd" d="M172.9,724.6h.7v-26h-.7v26Z" class="g0_2"/>
<path fill-rule="evenodd" d="M792.3,724.6h.8v-26h-.8v26Z" class="g0_2"/>
<path fill-rule="evenodd" d="M181.5,741.1h.8v-.7h-.8v.7Z" class="g0_2"/>
<path fill-rule="evenodd" d="M181.5,741.1h.8v-.7h-.8v.7Z" class="g0_2"/>
<path fill-rule="evenodd" d="M182.3,741.1H209v-.7H182.3v.7Z" class="g0_2"/>
<path fill-rule="evenodd" d="M209,741.1h.8v-.7H209v.7Z" class="g0_2"/>
<path fill-rule="evenodd" d="M209,741.1h.8v-.7H209v.7Z" class="g0_2"/>
<path fill-rule="evenodd" d="M374.6,741.1h.8v-.7h-.8v.7Z" class="g0_2"/>
<path fill-rule="evenodd" d="M374.6,741.1h.8v-.7h-.8v.7Z" class="g0_2"/>
<path fill-rule="evenodd" d="M375.4,741.1h24.9v-.7H375.4v.7Z" class="g0_2"/>
<path fill-rule="evenodd" d="M400.3,741.1h.7v-.7h-.7v.7Z" class="g0_2"/>
<path fill-rule="evenodd" d="M400.3,741.1h.7v-.7h-.7v.7Z" class="g0_2"/>
<path fill-rule="evenodd" d="M499.9,741.1h.7v-.7h-.7v.7Z" class="g0_2"/>
<path fill-rule="evenodd" d="M499.9,741.1h.7v-.7h-.7v.7Z" class="g0_2"/>
<path fill-rule="evenodd" d="M500.6,741.1h24.9v-.7H500.6v.7Z" class="g0_2"/>
<path fill-rule="evenodd" d="M525.5,741.1h.8v-.7h-.8v.7Z" class="g0_2"/>
<path fill-rule="evenodd" d="M525.5,741.1h.8v-.7h-.8v.7Z" class="g0_2"/>
<path fill-rule="evenodd" d="M620.7,741.1h.7v-.7h-.7v.7Z" class="g0_2"/>
<path fill-rule="evenodd" d="M620.7,741.1h.7v-.7h-.7v.7Z" class="g0_2"/>
<path fill-rule="evenodd" d="M621.4,741.1h25v-.7h-25v.7Z" class="g0_2"/>
<path fill-rule="evenodd" d="M646.4,741.1h.7v-.7h-.7v.7Z" class="g0_2"/>
<path fill-rule="evenodd" d="M646.4,741.1h.7v-.7h-.7v.7Z" class="g0_2"/>
<path fill-rule="evenodd" d="M181.5,767.2h.8V741.1h-.8v26.1Z" class="g0_2"/>
<path fill-rule="evenodd" d="M209,767.2h.8V741.1H209v26.1Z" class="g0_2"/>
<path fill-rule="evenodd" d="M374.6,767.2h.8V741.1h-.8v26.1Z" class="g0_2"/>
<path fill-rule="evenodd" d="M400.3,767.2h.7V741.1h-.7v26.1Z" class="g0_2"/>
<path fill-rule="evenodd" d="M499.9,767.2h.7V741.1h-.7v26.1Z" class="g0_2"/>
<path fill-rule="evenodd" d="M525.5,767.2h.8V741.1h-.8v26.1Z" class="g0_2"/>
<path fill-rule="evenodd" d="M620.7,767.2h.7V741.1h-.7v26.1Z" class="g0_2"/>
<path fill-rule="evenodd" d="M646.4,767.2h.7V741.1h-.7v26.1Z" class="g0_2"/>
<path fill-rule="evenodd" d="M181.5,767.9h.8v-.7h-.8v.7Z" class="g0_2"/>
<path fill-rule="evenodd" d="M181.5,767.9h.8v-.7h-.8v.7Z" class="g0_2"/>
<path fill-rule="evenodd" d="M182.3,767.9h.7v-.7h-.7v.7Z" class="g0_2"/>
<path fill-rule="evenodd" d="M183,767.9h26v-.7H183v.7Z" class="g0_2"/>
<path fill-rule="evenodd" d="M209,767.9h.8v-.7H209v.7Z" class="g0_2"/>
<path fill-rule="evenodd" d="M374.6,767.9h.8v-.7h-.8v.7Z" class="g0_2"/>
<path fill-rule="evenodd" d="M374.6,767.9h.8v-.7h-.8v.7Z" class="g0_2"/>
<path fill-rule="evenodd" d="M375.4,767.9h.7v-.7h-.7v.7Z" class="g0_2"/>
<path fill-rule="evenodd" d="M376.1,767.9h24.2v-.7H376.1v.7Z" class="g0_2"/>
<path fill-rule="evenodd" d="M400.3,767.9h.7v-.7h-.7v.7Z" class="g0_2"/>
<path fill-rule="evenodd" d="M499.9,767.9h.7v-.7h-.7v.7Z" class="g0_2"/>
<path fill-rule="evenodd" d="M499.9,767.9h.7v-.7h-.7v.7Z" class="g0_2"/>
<path fill-rule="evenodd" d="M500.6,767.9h.7v-.7h-.7v.7Z" class="g0_2"/>
<path fill-rule="evenodd" d="M501.3,767.9h24.2v-.7H501.3v.7Z" class="g0_2"/>
<path fill-rule="evenodd" d="M525.5,767.9h.8v-.7h-.8v.7Z" class="g0_2"/>
<path fill-rule="evenodd" d="M620.7,767.9h.7v-.7h-.7v.7Z" class="g0_2"/>
<path fill-rule="evenodd" d="M620.7,767.9h.7v-.7h-.7v.7Z" class="g0_2"/>
<path fill-rule="evenodd" d="M621.4,767.9h.8v-.7h-.8v.7Z" class="g0_2"/>
<path fill-rule="evenodd" d="M622.2,767.9h24.2v-.7H622.2v.7Z" class="g0_2"/>
<path fill-rule="evenodd" d="M646.4,767.9h.7v-.7h-.7v.7Z" class="g0_2"/>
<path fill-rule="evenodd" d="M172.9,725.4h.7v-.8h-.7v.8Z" class="g0_2"/>
<path fill-rule="evenodd" d="M172.9,725.4h.7v-.8h-.7v.8Z" class="g0_2"/>
<path fill-rule="evenodd" d="M173.6,725.4h.8v-.8h-.8v.8Z" class="g0_2"/>
<path fill-rule="evenodd" d="M174.4,725.4H792.3v-.8H174.4v.8Z" class="g0_2"/>
<path fill-rule="evenodd" d="M792.3,725.4h.8v-.8h-.8v.8Z" class="g0_2"/>
<path fill-rule="evenodd" d="M164.3,446.9h.7v-.8h-.7v.8Z" class="g0_2"/>
<path fill-rule="evenodd" d="M165,446.9H801.1v-.8H165v.8Z" class="g0_2"/>
<path fill-rule="evenodd" d="M801.1,446.9h.8v-.8h-.8v.8Z" class="g0_2"/>
<path fill-rule="evenodd" d="M164.3,860.5h.7V446.9h-.7V860.5Z" class="g0_2"/>
<path fill-rule="evenodd" d="M801.1,860.5h.8V446.9h-.8V860.5Z" class="g0_2"/>
<path fill-rule="evenodd" d="M175.8,918.4H227V906.9H175.8v11.5Z" class="g1_2"/>
<path fill-rule="evenodd" d="M175.8,940.8h7.9V918.4h-7.9v22.4Z" class="g1_2"/>
<path fill-rule="evenodd" d="M219.1,940.8H227V918.4h-7.9v22.4Z" class="g1_2"/>
<path fill-rule="evenodd" d="M175.8,952.4H227V940.8H175.8v11.6Z" class="g1_2"/>
<path fill-rule="evenodd" d="M183.7,940.8h35.4V918.4H183.7v22.4Z" class="g1_2"/>
<path fill-rule="evenodd" d="M227.7,907.2H487v-.3H227.7v.3Z" class="g1_2"/>
<path fill-rule="evenodd" d="M227.7,952h7.9V907.2h-7.9V952Z" class="g1_2"/>
<path fill-rule="evenodd" d="M479.1,952H487V907.2h-7.9V952Z" class="g1_2"/>
<path fill-rule="evenodd" d="M227.7,952.4H487V952H227.7v.4Z" class="g1_2"/>
<path fill-rule="evenodd" d="M235.6,929.6H479.1V907.2H235.6v22.4Z" class="g1_2"/>
<path fill-rule="evenodd" d="M235.6,952H479.1V929.6H235.6V952Z" class="g1_2"/>
<path fill-rule="evenodd" d="M487.8,929.2h7.9V906.9h-7.9v22.3Z" class="g1_2"/>
<path fill-rule="evenodd" d="M609,929.2h7.8V906.9H609v22.3Z" class="g1_2"/>
<path fill-rule="evenodd" d="M495.7,929.2H609V906.9H495.7v22.3Z" class="g1_2"/>
<path fill-rule="evenodd" d="M617.6,907.2H790.1v-.3H617.6v.3Z" class="g1_2"/>
<path fill-rule="evenodd" d="M617.6,952h7.9V907.2h-7.9V952Z" class="g1_2"/>
<path fill-rule="evenodd" d="M782.3,952h7.8V907.2h-7.8V952Z" class="g1_2"/>
<path fill-rule="evenodd" d="M617.6,952.4H790.1V952H617.6v.4Z" class="g1_2"/>
<path fill-rule="evenodd" d="M625.5,929.6H782.2V907.2H625.5v22.4Z" class="g1_2"/>
<path fill-rule="evenodd" d="M625.5,952H782.2V929.6H625.5V952Z" class="g1_2"/>
<path fill-rule="evenodd" d="M175.1,906.7h.7V906h-.7v.7Z" class="g0_2"/>
<path fill-rule="evenodd" d="M175.1,906.7h.7V906h-.7v.7Z" class="g0_2"/>
<path fill-rule="evenodd" d="M175.8,906.7h51.4V906H175.8v.7Z" class="g0_2"/>
<path fill-rule="evenodd" d="M227.2,906.7h.7V906h-.7v.7Z" class="g0_2"/>
<path fill-rule="evenodd" d="M227.9,906.7H487V906H227.9v.7Z" class="g0_2"/>
<path fill-rule="evenodd" d="M487,906.7h.8V906H487v.7Z" class="g0_2"/>
<path fill-rule="evenodd" d="M487.8,906.7h129V906h-129v.7Z" class="g0_2"/>
<path fill-rule="evenodd" d="M616.8,906.7h.8V906h-.8v.7Z" class="g0_2"/>
<path fill-rule="evenodd" d="M617.6,906.7H790.1V906H617.6v.7Z" class="g0_2"/>
<path fill-rule="evenodd" d="M790.1,906.7h.8V906h-.8v.7Z" class="g0_2"/>
<path fill-rule="evenodd" d="M790.1,906.7h.8V906h-.8v.7Z" class="g0_2"/>
<path fill-rule="evenodd" d="M175.1,929.2h.7V906.7h-.7v22.5Z" class="g0_2"/>
<path fill-rule="evenodd" d="M227.2,929.2h.7V906.7h-.7v22.5Z" class="g0_2"/>
<path fill-rule="evenodd" d="M487,929.2h.8V906.7H487v22.5Z" class="g0_2"/>
<path fill-rule="evenodd" d="M616.8,929.2h.8V906.7h-.8v22.5Z" class="g0_2"/>
<path fill-rule="evenodd" d="M790.1,929.2h.8V906.7h-.8v22.5Z" class="g0_2"/>
<path fill-rule="evenodd" d="M487.8,952.4h7.9V930h-7.9v22.4Z" class="g1_2"/>
<path fill-rule="evenodd" d="M544.1,952.4h7.8V930h-7.8v22.4Z" class="g1_2"/>
<path fill-rule="evenodd" d="M495.7,952.4h48.4V930H495.7v22.4Z" class="g1_2"/>
<path fill-rule="evenodd" d="M552.7,952.4h7.9V930h-7.9v22.4Z" class="g1_2"/>
<path fill-rule="evenodd" d="M609,952.4h7.8V930H609v22.4Z" class="g1_2"/>
<path fill-rule="evenodd" d="M560.6,952.4H609V930H560.6v22.4Z" class="g1_2"/>
<path fill-rule="evenodd" d="M175.1,930h.7v-.8h-.7v.8Z" class="g0_2"/>
<path fill-rule="evenodd" d="M227.2,930h.7v-.8h-.7v.8Z" class="g0_2"/>
<path fill-rule="evenodd" d="M487,930h.8v-.8H487v.8Z" class="g0_2"/>
<path fill-rule="evenodd" d="M487.8,930h64.1v-.8H487.8v.8Z" class="g0_2"/>
<path fill-rule="evenodd" d="M551.9,930h.8v-.8h-.8v.8Z" class="g0_2"/>
<path fill-rule="evenodd" d="M552.7,930h64.1v-.8H552.7v.8Z" class="g0_2"/>
<path fill-rule="evenodd" d="M616.8,930h.8v-.8h-.8v.8Z" class="g0_2"/>
<path fill-rule="evenodd" d="M790.1,930h.8v-.8h-.8v.8Z" class="g0_2"/>
<path fill-rule="evenodd" d="M175.1,952.4h.7V930h-.7v22.4Z" class="g0_2"/>
<path fill-rule="evenodd" d="M227.2,952.4h.7V930h-.7v22.4Z" class="g0_2"/>
<path fill-rule="evenodd" d="M487,952.4h.8V930H487v22.4Z" class="g0_2"/>
<path fill-rule="evenodd" d="M551.9,952.4h.8V930h-.8v22.4Z" class="g0_2"/>
<path fill-rule="evenodd" d="M616.8,952.4h.8V930h-.8v22.4Z" class="g0_2"/>
<path fill-rule="evenodd" d="M790.1,952.4h.8V930h-.8v22.4Z" class="g0_2"/>
<path fill-rule="evenodd" d="M175.1,953.1h.7v-.7h-.7v.7Z" class="g0_2"/>
<path fill-rule="evenodd" d="M175.8,953.1h51.4v-.7H175.8v.7Z" class="g0_2"/>
<path fill-rule="evenodd" d="M227.2,953.1h.7v-.7h-.7v.7Z" class="g0_2"/>
<path fill-rule="evenodd" d="M227.9,953.1H487v-.7H227.9v.7Z" class="g0_2"/>
<path fill-rule="evenodd" d="M487,953.1h.8v-.7H487v.7Z" class="g0_2"/>
<path fill-rule="evenodd" d="M487.8,953.1h64.1v-.7H487.8v.7Z" class="g0_2"/>
<path fill-rule="evenodd" d="M551.9,953.1h.8v-.7h-.8v.7Z" class="g0_2"/>
<path fill-rule="evenodd" d="M552.7,953.1h64.1v-.7H552.7v.7Z" class="g0_2"/>
<path fill-rule="evenodd" d="M616.8,953.1h.8v-.7h-.8v.7Z" class="g0_2"/>
<path fill-rule="evenodd" d="M617.6,953.1H790.1v-.7H617.6v.7Z" class="g0_2"/>
<path fill-rule="evenodd" d="M790.1,953.1h.8v-.7h-.8v.7Z" class="g0_2"/>
<path fill-rule="evenodd" d="M175.1,996.4h.7V953.1h-.7v43.3Z" class="g0_2"/>
<path fill-rule="evenodd" d="M227.2,996.4h.7V953.1h-.7v43.3Z" class="g0_2"/>
<path fill-rule="evenodd" d="M487,996.4h.8V953.1H487v43.3Z" class="g0_2"/>
<path fill-rule="evenodd" d="M551.9,996.4h.8V953.1h-.8v43.3Z" class="g0_2"/>
<path fill-rule="evenodd" d="M616.8,996.4h.8V953.1h-.8v43.3Z" class="g0_2"/>
<path fill-rule="evenodd" d="M790.1,996.4h.8V953.1h-.8v43.3Z" class="g0_2"/>
<path fill-rule="evenodd" d="M175.1,997.1h.7v-.7h-.7v.7Z" class="g0_2"/>
<path fill-rule="evenodd" d="M175.8,997.1h51.4v-.7H175.8v.7Z" class="g0_2"/>
<path fill-rule="evenodd" d="M227.2,997.1h.7v-.7h-.7v.7Z" class="g0_2"/>
<path fill-rule="evenodd" d="M227.9,997.1H487v-.7H227.9v.7Z" class="g0_2"/>
<path fill-rule="evenodd" d="M487,997.1h.8v-.7H487v.7Z" class="g0_2"/>
<path fill-rule="evenodd" d="M487.8,997.1h64.1v-.7H487.8v.7Z" class="g0_2"/>
<path fill-rule="evenodd" d="M551.9,997.1h.8v-.7h-.8v.7Z" class="g0_2"/>
<path fill-rule="evenodd" d="M552.7,997.1h64.1v-.7H552.7v.7Z" class="g0_2"/>
<path fill-rule="evenodd" d="M616.8,997.1h.8v-.7h-.8v.7Z" class="g0_2"/>
<path fill-rule="evenodd" d="M617.6,997.1H790.1v-.7H617.6v.7Z" class="g0_2"/>
<path fill-rule="evenodd" d="M790.1,997.1h.8v-.7h-.8v.7Z" class="g0_2"/>
<path fill-rule="evenodd" d="M175.1,1040.6h.7V997.1h-.7v43.5Z" class="g0_2"/>
<path fill-rule="evenodd" d="M227.2,1040.6h.7V997.1h-.7v43.5Z" class="g0_2"/>
<path fill-rule="evenodd" d="M487,1040.6h.8V997.1H487v43.5Z" class="g0_2"/>
<path fill-rule="evenodd" d="M551.9,1040.6h.8V997.1h-.8v43.5Z" class="g0_2"/>
<path fill-rule="evenodd" d="M616.8,1040.6h.8V997.1h-.8v43.5Z" class="g0_2"/>
<path fill-rule="evenodd" d="M790.1,1040.6h.8V997.1h-.8v43.5Z" class="g0_2"/>
<path fill-rule="evenodd" d="M175.1,1041.3h.7v-.7h-.7v.7Z" class="g0_2"/>
<path fill-rule="evenodd" d="M175.8,1041.3h51.4v-.7H175.8v.7Z" class="g0_2"/>
<path fill-rule="evenodd" d="M227.2,1041.3h.7v-.7h-.7v.7Z" class="g0_2"/>
<path fill-rule="evenodd" d="M227.9,1041.3H487v-.7H227.9v.7Z" class="g0_2"/>
<path fill-rule="evenodd" d="M487,1041.3h.8v-.7H487v.7Z" class="g0_2"/>
<path fill-rule="evenodd" d="M487.8,1041.3h64.1v-.7H487.8v.7Z" class="g0_2"/>
<path fill-rule="evenodd" d="M551.9,1041.3h.8v-.7h-.8v.7Z" class="g0_2"/>
<path fill-rule="evenodd" d="M552.7,1041.3h64.1v-.7H552.7v.7Z" class="g0_2"/>
<path fill-rule="evenodd" d="M616.8,1041.3h.8v-.7h-.8v.7Z" class="g0_2"/>
<path fill-rule="evenodd" d="M617.6,1041.3H790.1v-.7H617.6v.7Z" class="g0_2"/>
<path fill-rule="evenodd" d="M790.1,1041.3h.8v-.7h-.8v.7Z" class="g0_2"/>
<path fill-rule="evenodd" d="M175.1,1084.6h.7v-43.3h-.7v43.3Z" class="g0_2"/>
<path fill-rule="evenodd" d="M227.2,1084.6h.7v-43.3h-.7v43.3Z" class="g0_2"/>
<path fill-rule="evenodd" d="M487,1084.6h.8v-43.3H487v43.3Z" class="g0_2"/>
<path fill-rule="evenodd" d="M551.9,1084.6h.8v-43.3h-.8v43.3Z" class="g0_2"/>
<path fill-rule="evenodd" d="M616.8,1084.6h.8v-43.3h-.8v43.3Z" class="g0_2"/>
<path fill-rule="evenodd" d="M790.1,1084.6h.8v-43.3h-.8v43.3Z" class="g0_2"/>
<path fill-rule="evenodd" d="M175.1,1085.3h.7v-.7h-.7v.7Z" class="g0_2"/>
<path fill-rule="evenodd" d="M175.8,1085.3h51.4v-.7H175.8v.7Z" class="g0_2"/>
<path fill-rule="evenodd" d="M227.2,1085.3h.7v-.7h-.7v.7Z" class="g0_2"/>
<path fill-rule="evenodd" d="M227.9,1085.3H487v-.7H227.9v.7Z" class="g0_2"/>
<path fill-rule="evenodd" d="M487,1085.3h.8v-.7H487v.7Z" class="g0_2"/>
<path fill-rule="evenodd" d="M487.8,1085.3h64.1v-.7H487.8v.7Z" class="g0_2"/>
<path fill-rule="evenodd" d="M551.9,1085.3h.8v-.7h-.8v.7Z" class="g0_2"/>
<path fill-rule="evenodd" d="M552.7,1085.3h64.1v-.7H552.7v.7Z" class="g0_2"/>
<path fill-rule="evenodd" d="M616.8,1085.3h.8v-.7h-.8v.7Z" class="g0_2"/>
<path fill-rule="evenodd" d="M617.6,1085.3H790.1v-.7H617.6v.7Z" class="g0_2"/>
<path fill-rule="evenodd" d="M790.1,1085.3h.8v-.7h-.8v.7Z" class="g0_2"/>
<path fill-rule="evenodd" d="M175.1,1128.8h.7v-43.5h-.7v43.5Z" class="g0_2"/>
<path fill-rule="evenodd" d="M175.1,1129.5h.7v-.7h-.7v.7Z" class="g0_2"/>
<path fill-rule="evenodd" d="M175.1,1129.5h.7v-.7h-.7v.7Z" class="g0_2"/>
<path fill-rule="evenodd" d="M175.8,1129.5h51.4v-.7H175.8v.7Z" class="g0_2"/>
<path fill-rule="evenodd" d="M227.2,1128.8h.7v-43.5h-.7v43.5Z" class="g0_2"/>
<path fill-rule="evenodd" d="M227.2,1129.5h.7v-.7h-.7v.7Z" class="g0_2"/>
<path fill-rule="evenodd" d="M227.9,1129.5H487v-.7H227.9v.7Z" class="g0_2"/>
<path fill-rule="evenodd" d="M487,1128.8h.8v-43.5H487v43.5Z" class="g0_2"/>
<path fill-rule="evenodd" d="M487,1129.5h.8v-.7H487v.7Z" class="g0_2"/>
<path fill-rule="evenodd" d="M487.8,1129.5h64.1v-.7H487.8v.7Z" class="g0_2"/>
<path fill-rule="evenodd" d="M551.9,1128.8h.8v-43.5h-.8v43.5Z" class="g0_2"/>
<path fill-rule="evenodd" d="M551.9,1129.5h.8v-.7h-.8v.7Z" class="g0_2"/>
<path fill-rule="evenodd" d="M552.7,1129.5h64.1v-.7H552.7v.7Z" class="g0_2"/>
<path fill-rule="evenodd" d="M616.8,1128.8h.8v-43.5h-.8v43.5Z" class="g0_2"/>
<path fill-rule="evenodd" d="M616.8,1129.5h.8v-.7h-.8v.7Z" class="g0_2"/>
<path fill-rule="evenodd" d="M617.6,1129.5H790.1v-.7H617.6v.7Z" class="g0_2"/>
<path fill-rule="evenodd" d="M790.1,1128.8h.8v-43.5h-.8v43.5Z" class="g0_2"/>
<path fill-rule="evenodd" d="M790.1,1129.5h.8v-.7h-.8v.7Z" class="g0_2"/>
<path fill-rule="evenodd" d="M790.1,1129.5h.8v-.7h-.8v.7Z" class="g0_2"/>
<path fill-rule="evenodd" d="M164.3,861.2h.7v-.7h-.7v.7Z" class="g0_2"/>
<path fill-rule="evenodd" d="M165,861.2H801.1v-.7H165v.7Z" class="g0_2"/>
<path fill-rule="evenodd" d="M801.1,861.2h.8v-.7h-.8v.7Z" class="g0_2"/>
<path fill-rule="evenodd" d="M164.3,1129.5h.7V861.2h-.7v268.3Z" class="g0_2"/>
<path fill-rule="evenodd" d="M164.3,1130.2h.7v-.7h-.7v.7Z" class="g0_2"/>
<path fill-rule="evenodd" d="M164.3,1130.2h.7v-.7h-.7v.7Z" class="g0_2"/>
<path fill-rule="evenodd" d="M165,1130.2H801.1v-.7H165v.7Z" class="g0_2"/>
<path fill-rule="evenodd" d="M801.1,1129.5h.8V861.2h-.8v268.3Z" class="g0_2"/>
<path fill-rule="evenodd" d="M801.1,1130.2h.8v-.7h-.8v.7Z" class="g0_2"/>
<path fill-rule="evenodd" d="M801.1,1130.2h.8v-.7h-.8v.7Z" class="g0_2"/>
</svg>